<svg id="clock-svg-template" viewBox="0 0 200 200" xmlns="http://www.w3.org/2000/svg">
  <circle cx="100" cy="100" r="95" stroke="black" stroke-width="2" fill="none" />
  <!-- минутные палочки -->
  <g class="minute-marks">
    <g>
      <!-- 60 линий -->
      <line x1="100" y1="13" x2="100" y2="21" stroke="#888" stroke-width="2" opacity="0.35" transform="rotate(0,100,100)" />
      <line x1="100" y1="13" x2="100" y2="21" stroke="#888" stroke-width="2" opacity="0.35" transform="rotate(6,100,100)" />
      <line x1="100" y1="13" x2="100" y2="21" stroke="#888" stroke-width="2" opacity="0.35" transform="rotate(12,100,100)" />
      <line x1="100" y1="13" x2="100" y2="21" stroke="#888" stroke-width="2" opacity="0.35" transform="rotate(18,100,100)" />
      <line x1="100" y1="13" x2="100" y2="21" stroke="#888" stroke-width="2" opacity="0.35" transform="rotate(24,100,100)" />
      <line x1="100" y1="13" x2="100" y2="21" stroke="#888" stroke-width="2" opacity="0.35" transform="rotate(30,100,100)" />
      <line x1="100" y1="13" x2="100" y2="21" stroke="#888" stroke-width="2" opacity="0.35" transform="rotate(36,100,100)" />
      <line x1="100" y1="13" x2="100" y2="21" stroke="#888" stroke-width="2" opacity="0.35" transform="rotate(42,100,100)" />
      <line x1="100" y1="13" x2="100" y2="21" stroke="#888" stroke-width="2" opacity="0.35" transform="rotate(48,100,100)" />
      <line x1="100" y1="13" x2="100" y2="21" stroke="#888" stroke-width="2" opacity="0.35" transform="rotate(54,100,100)" />
      <line x1="100" y1="13" x2="100" y2="21" stroke="#888" stroke-width="2" opacity="0.35" transform="rotate(60,100,100)" />
      <line x1="100" y1="13" x2="100" y2="21" stroke="#888" stroke-width="2" opacity="0.35" transform="rotate(66,100,100)" />
      <line x1="100" y1="13" x2="100" y2="21" stroke="#888" stroke-width="2" opacity="0.35" transform="rotate(72,100,100)" />
      <line x1="100" y1="13" x2="100" y2="21" stroke="#888" stroke-width="2" opacity="0.35" transform="rotate(78,100,100)" />
      <line x1="100" y1="13" x2="100" y2="21" stroke="#888" stroke-width="2" opacity="0.35" transform="rotate(84,100,100)" />
      <line x1="100" y1="13" x2="100" y2="21" stroke="#888" stroke-width="2" opacity="0.35" transform="rotate(90,100,100)" />
      <line x1="100" y1="13" x2="100" y2="21" stroke="#888" stroke-width="2" opacity="0.35" transform="rotate(96,100,100)" />
      <line x1="100" y1="13" x2="100" y2="21" stroke="#888" stroke-width="2" opacity="0.35" transform="rotate(102,100,100)" />
      <line x1="100" y1="13" x2="100" y2="21" stroke="#888" stroke-width="2" opacity="0.35" transform="rotate(108,100,100)" />
      <line x1="100" y1="13" x2="100" y2="21" stroke="#888" stroke-width="2" opacity="0.35" transform="rotate(114,100,100)" />
      <line x1="100" y1="13" x2="100" y2="21" stroke="#888" stroke-width="2" opacity="0.35" transform="rotate(120,100,100)" />
      <line x1="100" y1="13" x2="100" y2="21" stroke="#888" stroke-width="2" opacity="0.35" transform="rotate(126,100,100)" />
      <line x1="100" y1="13" x2="100" y2="21" stroke="#888" stroke-width="2" opacity="0.35" transform="rotate(132,100,100)" />
      <line x1="100" y1="13" x2="100" y2="21" stroke="#888" stroke-width="2" opacity="0.35" transform="rotate(138,100,100)" />
      <line x1="100" y1="13" x2="100" y2="21" stroke="#888" stroke-width="2" opacity="0.35" transform="rotate(144,100,100)" />
      <line x1="100" y1="13" x2="100" y2="21" stroke="#888" stroke-width="2" opacity="0.35" transform="rotate(150,100,100)" />
      <line x1="100" y1="13" x2="100" y2="21" stroke="#888" stroke-width="2" opacity="0.35" transform="rotate(156,100,100)" />
      <line x1="100" y1="13" x2="100" y2="21" stroke="#888" stroke-width="2" opacity="0.35" transform="rotate(162,100,100)" />
      <line x1="100" y1="13" x2="100" y2="21" stroke="#888" stroke-width="2" opacity="0.35" transform="rotate(168,100,100)" />
      <line x1="100" y1="13" x2="100" y2="21" stroke="#888" stroke-width="2" opacity="0.35" transform="rotate(174,100,100)" />
      <line x1="100" y1="13" x2="100" y2="21" stroke="#888" stroke-width="2" opacity="0.35" transform="rotate(180,100,100)" />
      <line x1="100" y1="13" x2="100" y2="21" stroke="#888" stroke-width="2" opacity="0.35" transform="rotate(186,100,100)" />
      <line x1="100" y1="13" x2="100" y2="21" stroke="#888" stroke-width="2" opacity="0.35" transform="rotate(192,100,100)" />
      <line x1="100" y1="13" x2="100" y2="21" stroke="#888" stroke-width="2" opacity="0.35" transform="rotate(198,100,100)" />
      <line x1="100" y1="13" x2="100" y2="21" stroke="#888" stroke-width="2" opacity="0.35" transform="rotate(204,100,100)" />
      <line x1="100" y1="13" x2="100" y2="21" stroke="#888" stroke-width="2" opacity="0.35" transform="rotate(210,100,100)" />
      <line x1="100" y1="13" x2="100" y2="21" stroke="#888" stroke-width="2" opacity="0.35" transform="rotate(216,100,100)" />
      <line x1="100" y1="13" x2="100" y2="21" stroke="#888" stroke-width="2" opacity="0.35" transform="rotate(222,100,100)" />
      <line x1="100" y1="13" x2="100" y2="21" stroke="#888" stroke-width="2" opacity="0.35" transform="rotate(228,100,100)" />
      <line x1="100" y1="13" x2="100" y2="21" stroke="#888" stroke-width="2" opacity="0.35" transform="rotate(234,100,100)" />
      <line x1="100" y1="13" x2="100" y2="21" stroke="#888" stroke-width="2" opacity="0.35" transform="rotate(240,100,100)" />
      <line x1="100" y1="13" x2="100" y2="21" stroke="#888" stroke-width="2" opacity="0.35" transform="rotate(246,100,100)" />
      <line x1="100" y1="13" x2="100" y2="21" stroke="#888" stroke-width="2" opacity="0.35" transform="rotate(252,100,100)" />
      <line x1="100" y1="13" x2="100" y2="21" stroke="#888" stroke-width="2" opacity="0.35" transform="rotate(258,100,100)" />
      <line x1="100" y1="13" x2="100" y2="21" stroke="#888" stroke-width="2" opacity="0.35" transform="rotate(264,100,100)" />
      <line x1="100" y1="13" x2="100" y2="21" stroke="#888" stroke-width="2" opacity="0.35" transform="rotate(270,100,100)" />
      <line x1="100" y1="13" x2="100" y2="21" stroke="#888" stroke-width="2" opacity="0.35" transform="rotate(276,100,100)" />
      <line x1="100" y1="13" x2="100" y2="21" stroke="#888" stroke-width="2" opacity="0.35" transform="rotate(282,100,100)" />
      <line x1="100" y1="13" x2="100" y2="21" stroke="#888" stroke-width="2" opacity="0.35" transform="rotate(288,100,100)" />
      <line x1="100" y1="13" x2="100" y2="21" stroke="#888" stroke-width="2" opacity="0.35" transform="rotate(294,100,100)" />
      <line x1="100" y1="13" x2="100" y2="21" stroke="#888" stroke-width="2" opacity="0.35" transform="rotate(300,100,100)" />
      <line x1="100" y1="13" x2="100" y2="21" stroke="#888" stroke-width="2" opacity="0.35" transform="rotate(306,100,100)" />
      <line x1="100" y1="13" x2="100" y2="21" stroke="#888" stroke-width="2" opacity="0.35" transform="rotate(312,100,100)" />
      <line x1="100" y1="13" x2="100" y2="21" stroke="#888" stroke-width="2" opacity="0.35" transform="rotate(318,100,100)" />
      <line x1="100" y1="13" x2="100" y2="21" stroke="#888" stroke-width="2" opacity="0.35" transform="rotate(324,100,100)" />
      <line x1="100" y1="13" x2="100" y2="21" stroke="#888" stroke-width="2" opacity="0.35" transform="rotate(330,100,100)" />
      <line x1="100" y1="13" x2="100" y2="21" stroke="#888" stroke-width="2" opacity="0.35" transform="rotate(336,100,100)" />
      <line x1="100" y1="13" x2="100" y2="21" stroke="#888" stroke-width="2" opacity="0.35" transform="rotate(342,100,100)" />
      <line x1="100" y1="13" x2="100" y2="21" stroke="#888" stroke-width="2" opacity="0.35" transform="rotate(348,100,100)" />
    </g>
  </g>
  <g font-size="16" font-family="Arial" text-anchor="middle" dominant-baseline="middle">
    <text x="100" y="20" transform="rotate(0,100,100)">12</text>
    <text x="100" y="20" transform="rotate(30,100,100)">1</text>
    <text x="100" y="20" transform="rotate(60,100,100)">2</text>
    <text x="100" y="20" transform="rotate(90,100,100)">3</text>
    <text x="100" y="20" transform="rotate(120,100,100)">4</text>
    <text x="100" y="20" transform="rotate(150,100,100)">5</text>
    <text x="100" y="20" transform="rotate(180,100,100)">6</text>
    <text x="100" y="20" transform="rotate(210,100,100)">7</text>
    <text x="100" y="20" transform="rotate(240,100,100)">8</text>
    <text x="100" y="20" transform="rotate(270,100,100)">9</text>
    <text x="100" y="20" transform="rotate(300,100,100)">10</text>
    <text x="100" y="20" transform="rotate(330,100,100)">11</text>
  </g>
  <g class="twentyfour-group" font-size="13" font-family="Arial" text-anchor="middle" dominant-baseline="middle">
    <text x="100" y="35" transform="rotate(0,100,100)">00</text>
    <text x="100" y="35" transform="rotate(30,100,100)">13</text>
    <text x="100" y="35" transform="rotate(60,100,100)">14</text>
    <text x="100" y="35" transform="rotate(90,100,100)">15</text>
    <text x="100" y="35" transform="rotate(120,100,100)">16</text>
    <text x="100" y="35" transform="rotate(150,100,100)">17</text>
    <text x="100" y="35" transform="rotate(180,100,100)">18</text>
    <text x="100" y="35" transform="rotate(210,100,100)">19</text>
    <text x="100" y="35" transform="rotate(240,100,100)">20</text>
    <text x="100" y="35" transform="rotate(270,100,100)">21</text>
    <text x="100" y="35" transform="rotate(300,100,100)">22</text>
    <text x="100" y="35" transform="rotate(330,100,100)">23</text>
  </g>
  <circle cx="100" cy="100" r="3" fill="black" />
  <!-- Часовая и минутная стрелки (по умолчанию скрыты) -->
  <line id="clock-hour-hand" x1="100" y1="100" x2="100" y2="100" stroke="black" stroke-width="5" stroke-linecap="round" style="display:none" />
  <line id="clock-minute-hand" x1="100" y1="100" x2="100" y2="100" stroke="black" stroke-width="3" stroke-linecap="round" style="display:none" />
  <!-- Галочка и крестик для проверки (правый верхний угол) -->
  <g id="svg-checkmark" style="display:none">
    <path d="M160 35 l10 15 l20 -25" stroke="green" stroke-width="5" fill="none"/>
  </g>
  <g id="svg-cross" style="display:none">
    <line x1="160" y1="25" x2="190" y2="55" stroke="red" stroke-width="5"/>
    <line x1="190" y1="25" x2="160" y2="55" stroke="red" stroke-width="5"/>
  </g>
  <g id="svg-sun" style="display:none">
    <circle cx="30" cy="30" r="6" fill="#FFD700" stroke="#FFA500" stroke-width="2"/>
    <g stroke="#FFD700" stroke-width="1.2">
      <line x1="30" y1="18" x2="30" y2="10"/>
      <line x1="30" y1="42" x2="30" y2="50"/>
      <line x1="18" y1="30" x2="10" y2="30"/>
      <line x1="42" y1="30" x2="50" y2="30"/>
      <line x1="22" y1="22" x2="16" y2="16"/>
      <line x1="38" y1="22" x2="44" y2="16"/>
      <line x1="22" y1="38" x2="16" y2="44"/>
      <line x1="38" y1="38" x2="44" y2="44"/>
    </g>
  </g>
  <g id="svg-moon" style="display:none">
    <path d="M36 30 A6 6 0 1 1 30 24 A4 4 0 1 0 36 30" fill="#B0C4DE" stroke="#708090" stroke-width="1.2"/>
  </g>
  <g id="svg-reload" style="display:none" transform="translate(100,100) scale(4)">
    <path stroke="#1976d2" stroke-width="2.5" stroke-linecap="round" stroke-linejoin="round" fill="none"
      d="M-9.5 0a9.5 9.5 0 0 1 16.157-6.71m0 0H3.5m3.157 0V-8.25M11.5 0a9.5 9.5 0 0 1-16.157 6.71m0 0H-2.5m-3.157 0V8.25"/>
  </g>
</svg>
